<svg width="146" height="31" viewBox="0 0 146 31" fill="none" xmlns="http://www.w3.org/2000/svg">
<path d="M0 3.14906H4.12384V24.8571H15.5231V28.674H0V3.14906ZM19.5799 3.14906C19.9146 3.14462 20.2467 3.20611 20.5575 3.32999C20.8685 3.45386 21.1518 3.63771 21.3916 3.87101C21.6314 4.10433 21.8226 4.38255 21.9548 4.68977C22.0869 4.997 22.1571 5.32723 22.1615 5.66157C22.1615 6.3457 21.8896 7.00181 21.4054 7.48557C20.9213 7.96932 20.2646 8.2411 19.5799 8.2411C18.8953 8.2411 18.2386 7.96932 17.7545 7.48557C17.2703 7.00181 16.9983 6.3457 16.9983 5.66157C16.9997 5.32635 17.0679 4.99476 17.199 4.68618C17.3301 4.37759 17.5214 4.09819 17.7617 3.86428C18.0021 3.63038 18.2867 3.44667 18.5988 3.32386C18.911 3.20106 19.2444 3.14163 19.5799 3.14906ZM17.5683 10.2846H21.5244V28.674H17.5683V10.2846ZM23.8378 10.2846H27.794V12.8306C28.9653 10.8876 30.977 9.78211 33.6256 9.78211C37.9171 9.78211 40.5993 13.1321 40.5993 18.4587V28.674H36.6431V18.7937C36.6431 15.3431 35.1344 13.4001 32.4096 13.4001C29.4279 13.4001 27.7851 15.4436 27.7851 19.1287V28.674H23.829L23.8378 10.2846ZM42.678 3.14906H46.6342V19.2961L54.0101 10.2846H58.9721L51.0932 19.4972L58.9721 28.674H54.0101L46.6342 19.6982V28.674H42.678V3.14906ZM60.5144 5.60573H64.5377V10.2958H69.2316V13.5788H64.5377V23.0571C64.5377 24.2654 65.2753 25.0023 66.4152 25.0023H69.0662V28.6851H65.8789C62.4256 28.6851 60.5144 26.6416 60.5144 23.0259V5.60573ZM70.975 10.2958H74.9312V12.5738C75.9034 10.8318 77.5463 9.79327 79.558 9.79327C80.0222 9.77213 80.4869 9.82875 80.9325 9.96078V13.6458C80.4484 13.5395 79.9527 13.4945 79.4574 13.5118C76.5405 13.5118 74.9312 15.9685 74.9312 20.1783V28.6851H70.975V10.2958ZM90.1838 9.79327C94.5423 9.79327 99.2698 12.4398 99.2698 19.9103V20.4464H85.0877C85.3918 23.7271 87.3005 25.5362 90.4855 25.5362C92.7655 25.5362 94.71 24.2966 95.1458 22.5903H99.1692C98.7668 26.2731 94.9447 29.1877 90.4855 29.1877C84.786 29.1877 81.2008 25.4691 81.2008 19.4748C81.2008 14.1371 84.6541 9.78211 90.1838 9.78211V9.79327ZM95.0453 17.1633C94.4753 14.8853 92.6983 13.4448 90.1838 13.4448C87.7699 13.4448 86.0623 14.9188 85.3918 17.1633H95.0453ZM109.998 9.79327C114.357 9.79327 119.084 12.4398 119.084 19.9103V20.4464H104.902C105.204 23.7271 107.115 25.5362 110.3 25.5362C112.58 25.5362 114.525 24.2966 114.96 22.5903H118.984C118.581 26.2731 114.759 29.1877 110.3 29.1877C104.601 29.1877 101.013 25.4691 101.013 19.4748C101.013 14.1371 104.466 9.78211 109.998 9.78211V9.79327ZM114.86 17.1633C114.29 14.8853 112.513 13.4448 109.998 13.4448C107.584 13.4448 105.875 14.9188 105.204 17.1633H114.86Z" fill="black"/>
<path d="M120.058 9.72623H127.132L122.103 4.93571L124.886 2.07702L129.68 7.00155V0H133.838V7.00155L138.632 2.08818L141.412 4.93571L136.386 9.71507H143.458V13.6681H136.345L141.406 18.5814L138.632 21.3732L131.759 14.4721L124.886 21.3732L122.103 18.5927L127.166 13.6793H120.058V9.72623ZM129.669 19.3407H133.827V28.721H129.669V19.3407Z" fill="#43E660"/>
</svg>
